<svg width="60" height="61" viewBox="0 0 60 61" fill="none" xmlns="http://www.w3.org/2000/svg">
<rect x="0.5" y="1" width="59" height="59" rx="11.5" fill="#FF7800"/>
<rect x="0.5" y="1" width="59" height="59" rx="11.5" stroke="black"/>
<g clip-path="url(#clip0_2763_5681)">
<path d="M11.6512 18.8273L10.5508 20.7043L48.2093 42.1145L49.3097 40.2375L11.6512 18.8273Z" fill="black"/>
<path d="M29.9137 42.2905C29.7234 42.2905 29.5332 42.2419 29.3627 42.1449L10.5495 31.4302C10.2093 31.2364 9.99981 30.8789 10 30.4918C10.0001 30.1047 10.2098 29.7472 10.5502 29.5537L29.416 18.8274C29.7566 18.6336 30.1762 18.6336 30.5165 18.8274L48.8568 29.2547C48.8665 29.2601 48.876 29.2657 48.8853 29.2715L49.3578 29.5591C49.6871 29.7595 49.8853 30.1158 49.8795 30.4972C49.8737 30.8785 49.6647 31.2287 49.3293 31.4192L30.4638 42.1453C30.2936 42.2421 30.1036 42.2905 29.9137 42.2905ZM13.2998 30.4929L29.914 39.9554L46.5951 30.4713L29.9663 21.017L13.2998 30.4929Z" fill="black"/>
<path d="M29.9137 52.9743C29.7226 52.9743 29.5315 52.9252 29.3605 52.8274L10.5473 42.0549C10.2079 41.8605 9.99937 41.5029 10 41.1164C10.0006 40.7299 10.2102 40.3728 10.5502 40.1797L46.4828 19.7501L29.8893 10.3346L12.2008 20.3915V30.4921H10V19.7658C10 19.3786 10.2097 19.0208 10.5502 18.8274L29.3385 8.14516C29.6788 7.9517 30.0979 7.9517 30.4381 8.14466L49.2346 18.8102C49.5754 19.0035 49.7854 19.3613 49.7856 19.7486C49.7858 20.1359 49.576 20.4939 49.2353 20.6875L13.2954 41.1214L29.9156 50.6382L47.6787 40.5388V30.4809H49.8796V41.1645C49.8796 41.5516 49.6699 41.9095 49.3293 42.1031L30.4639 52.8289C30.2936 52.9258 30.1036 52.9743 29.9137 52.9743Z" fill="black"/>
<path d="M31.0661 9.08356H28.8652V19.7658H31.0661V9.08356Z" fill="black"/>
<path d="M31.0131 41.2068H28.8125V51.8905H31.0131V41.2068Z" fill="black"/>
</g>
<defs>
<clipPath id="clip0_2763_5681">
<rect width="40" height="45" fill="white" transform="translate(10 8)"/>
</clipPath>
</defs>
</svg>
