<svg width="60" height="61" viewBox="0 0 60 61" fill="none" xmlns="http://www.w3.org/2000/svg">
<rect y="0.5" width="60" height="60" rx="12" fill="#060612"/>
<path d="M29.9992 41.871H12V49.4646H29.9992C39.94 49.4646 47.9985 41.2955 47.9985 31.2182C47.9985 28.7933 47.5319 26.4788 46.6845 24.3621H38.0425C39.5809 26.2149 40.5077 28.607 40.5077 31.2182C40.5077 37.1017 35.8029 41.871 29.9992 41.871Z" fill="url(#paint0_linear_4266_4915)"/>
<path d="M30.0021 38.7365C34.0935 38.7365 37.4105 35.3769 37.4105 31.2323C37.4105 27.0875 34.0938 23.7278 30.0021 23.7278C25.9104 23.7278 22.5938 27.0875 22.5938 31.2323C22.5938 35.3769 25.9104 38.7365 30.0021 38.7365Z" fill="url(#paint1_linear_4266_4915)"/>
<path fill-rule="evenodd" clip-rule="evenodd" d="M31.3828 41.8017C38.225 41.134 44.3959 37.2341 47.9996 31.2261C47.9996 28.7984 47.5334 26.4811 46.6867 24.3619H38.051C39.5883 26.2169 40.5145 28.6118 40.5145 31.2261C40.5145 36.6452 36.5355 41.1203 31.3828 41.8017Z" fill="url(#paint2_linear_4266_4915)"/>
<path d="M29.9992 20.5855H47.9985V13L29.9992 13C20.0585 12.9998 12 21.1604 12 31.2272C12 33.6496 12.4665 35.9617 13.3139 38.0762H21.956C20.4175 36.2253 19.4905 33.8357 19.4905 31.2272C19.4905 25.3498 24.1954 20.5855 29.9992 20.5855Z" fill="url(#paint3_linear_4266_4915)"/>
<path fill-rule="evenodd" clip-rule="evenodd" d="M28.6168 20.6629C21.7746 21.3295 15.6037 25.2235 12 31.2225C12 33.6465 12.4662 35.9602 13.3129 38.0762H21.9485C20.4112 36.2241 19.4849 33.8327 19.4849 31.2225C19.4849 25.8115 23.4644 21.3432 28.6168 20.6629Z" fill="url(#paint4_linear_4266_4915)"/>
<defs>
<linearGradient id="paint0_linear_4266_4915" x1="44.2974" y1="50.271" x2="23.17" y2="19.9751" gradientUnits="userSpaceOnUse">
<stop stop-color="#00FDFF"/>
<stop offset="0.04" stop-color="#00F7FE"/>
<stop offset="0.52" stop-color="#00BBF7"/>
<stop offset="0.85" stop-color="#002BEB"/>
<stop offset="1" stop-color="#0019E9"/>
</linearGradient>
<linearGradient id="paint1_linear_4266_4915" x1="46.3094" y1="19.6998" x2="30.5249" y2="41.6912" gradientUnits="userSpaceOnUse">
<stop stop-color="#003BEC"/>
<stop offset="0.35" stop-color="#0078F0"/>
<stop offset="0.73" stop-color="#00ADF4"/>
<stop offset="1" stop-color="#00DBF8"/>
</linearGradient>
<linearGradient id="paint2_linear_4266_4915" x1="41.6985" y1="27.957" x2="34.318" y2="35.3907" gradientUnits="userSpaceOnUse">
<stop stop-color="#004FED"/>
<stop offset="0.92" stop-color="#00E9F9"/>
</linearGradient>
<linearGradient id="paint3_linear_4266_4915" x1="44.2974" y1="38.8817" x2="23.2" y2="8.59684" gradientUnits="userSpaceOnUse">
<stop stop-color="#00FDFF"/>
<stop offset="0.04" stop-color="#00F7FE"/>
<stop offset="0.52" stop-color="#00BBF7"/>
<stop offset="0.85" stop-color="#002BEB"/>
<stop offset="1" stop-color="#0019E9"/>
</linearGradient>
<linearGradient id="paint4_linear_4266_4915" x1="18.6342" y1="34.6934" x2="25.8122" y2="27.0398" gradientUnits="userSpaceOnUse">
<stop stop-color="#004FED"/>
<stop offset="0.92" stop-color="#00E9F9"/>
</linearGradient>
</defs>
</svg>
